<?xml version="1.0" encoding="UTF-8"?>
<svg id="Layer_2" data-name="Layer 2" xmlns="http://www.w3.org/2000/svg" xmlns:xlink="http://www.w3.org/1999/xlink" viewBox="0 0 711.55 378.35">
  <defs>
    <style>
      .cls-1 {
        fill: url(#linear-gradient-2);
      }

      .cls-2 {
        fill: url(#radial-gradient-7);
      }

      .cls-3 {
        fill: url(#radial-gradient-10);
      }

      .cls-4 {
        fill: #fff;
      }

      .cls-5 {
        fill: url(#radial-gradient-16);
      }

      .cls-6 {
        fill: url(#radial-gradient-20);
      }

      .cls-7 {
        fill: url(#radial-gradient-21);
      }

      .cls-8 {
        fill: url(#radial-gradient-8);
      }

      .cls-9, .cls-10 {
        fill: #2e2e75;
      }

      .cls-11 {
        fill: url(#linear-gradient-6);
      }

      .cls-12 {
        fill: url(#radial-gradient-5);
      }

      .cls-13 {
        fill: url(#radial-gradient-4);
      }

      .cls-14 {
        fill: url(#radial-gradient-6);
      }

      .cls-15 {
        fill: url(#radial-gradient-19);
      }

      .cls-16 {
        fill: url(#radial-gradient-12);
      }

      .cls-17 {
        fill: url(#radial-gradient);
      }

      .cls-18 {
        fill: url(#radial-gradient-13);
      }

      .cls-19 {
        fill: url(#linear-gradient-5);
      }

      .cls-20 {
        fill: url(#radial-gradient-15);
      }

      .cls-21 {
        fill: url(#radial-gradient-2);
      }

      .cls-22 {
        fill: url(#radial-gradient-3);
      }

      .cls-23 {
        fill: url(#linear-gradient-7);
      }

      .cls-24 {
        fill: url(#linear-gradient-9);
      }

      .cls-25 {
        fill: url(#radial-gradient-17);
      }

      .cls-26 {
        fill: url(#radial-gradient-14);
      }

      .cls-27 {
        fill: url(#linear-gradient-3);
      }

      .cls-28 {
        fill: url(#linear-gradient);
      }

      .cls-10 {
        fill-rule: evenodd;
      }

      .cls-29 {
        fill: url(#linear-gradient-4);
      }

      .cls-30 {
        fill: url(#radial-gradient-11);
      }

      .cls-31 {
        fill: url(#radial-gradient-18);
      }

      .cls-32 {
        fill: url(#radial-gradient-9);
      }

      .cls-33 {
        fill: url(#linear-gradient-8);
      }
    </style>
    <radialGradient id="radial-gradient" cx="545.67" cy="87.75" fx="545.67" fy="87.75" r="111.27" gradientUnits="userSpaceOnUse">
      <stop offset="0" stop-color="#c0dbf1"/>
      <stop offset=".03" stop-color="#b8d7ef"/>
      <stop offset=".34" stop-color="#67b2dc"/>
      <stop offset=".56" stop-color="#339bd1"/>
      <stop offset=".66" stop-color="#2093cd"/>
      <stop offset=".86" stop-color="#0d7dbe"/>
      <stop offset="1" stop-color="#0473b7"/>
    </radialGradient>
    <radialGradient id="radial-gradient-2" r="111.27" xlink:href="#radial-gradient"/>
    <radialGradient id="radial-gradient-3" r="111.27" xlink:href="#radial-gradient"/>
    <radialGradient id="radial-gradient-4" r="111.27" xlink:href="#radial-gradient"/>
    <radialGradient id="radial-gradient-5" r="111.27" xlink:href="#radial-gradient"/>
    <radialGradient id="radial-gradient-6" r="111.27" xlink:href="#radial-gradient"/>
    <radialGradient id="radial-gradient-7" r="111.27" xlink:href="#radial-gradient"/>
    <radialGradient id="radial-gradient-8" r="111.27" xlink:href="#radial-gradient"/>
    <radialGradient id="radial-gradient-9" r="111.27" xlink:href="#radial-gradient"/>
    <radialGradient id="radial-gradient-10" r="111.27" xlink:href="#radial-gradient"/>
    <radialGradient id="radial-gradient-11" r="111.27" xlink:href="#radial-gradient"/>
    <radialGradient id="radial-gradient-12" r="111.27" xlink:href="#radial-gradient"/>
    <radialGradient id="radial-gradient-13" r="111.27" xlink:href="#radial-gradient"/>
    <radialGradient id="radial-gradient-14" cx="542.32" cy="83.29" fx="542.32" fy="83.29" r="97.59" xlink:href="#radial-gradient"/>
    <radialGradient id="radial-gradient-15" cx="545.67" cy="87.75" fx="545.67" fy="87.75" r="111.27" gradientUnits="userSpaceOnUse">
      <stop offset="0" stop-color="#c0dbf1"/>
      <stop offset=".02" stop-color="#bad9f0"/>
      <stop offset=".33" stop-color="#69c0e5"/>
      <stop offset=".56" stop-color="#35b0df"/>
      <stop offset=".66" stop-color="#2ad"/>
      <stop offset=".74" stop-color="#1999d1"/>
      <stop offset=".91" stop-color="#097dbe"/>
      <stop offset="1" stop-color="#0473b7"/>
    </radialGradient>
    <radialGradient id="radial-gradient-16" cx="545.67" cy="87.75" fx="545.67" fy="87.75" r="111.27" xlink:href="#radial-gradient-15"/>
    <radialGradient id="radial-gradient-17" cx="545.67" cy="87.75" fx="545.67" fy="87.75" r="111.27" xlink:href="#radial-gradient-15"/>
    <radialGradient id="radial-gradient-18" cx="545.67" cy="87.75" fx="545.67" fy="87.75" r="111.27" xlink:href="#radial-gradient-15"/>
    <radialGradient id="radial-gradient-19" cx="545.67" cy="87.75" fx="545.67" fy="87.75" r="111.27" xlink:href="#radial-gradient-15"/>
    <radialGradient id="radial-gradient-20" cx="545.67" cy="87.75" fx="545.67" fy="87.75" r="111.27" xlink:href="#radial-gradient-15"/>
    <radialGradient id="radial-gradient-21" cx="545.67" cy="87.75" fx="545.67" fy="87.75" r="111.27" xlink:href="#radial-gradient-15"/>
    <linearGradient id="linear-gradient" x1="122.69" y1="114.08" x2="125.04" y2="276.33" gradientUnits="userSpaceOnUse">
      <stop offset="0" stop-color="#f68e2b"/>
      <stop offset=".23" stop-color="#f68e2b"/>
      <stop offset=".33" stop-color="#d18b2e"/>
      <stop offset=".58" stop-color="#7f8736"/>
      <stop offset=".78" stop-color="#42833c"/>
      <stop offset=".92" stop-color="#1d813f"/>
      <stop offset="1" stop-color="#0f8141"/>
    </linearGradient>
    <linearGradient id="linear-gradient-2" x1="306.54" y1="111.42" x2="308.9" y2="273.67" xlink:href="#linear-gradient"/>
    <linearGradient id="linear-gradient-3" x1="485.17" y1="112.91" x2="485.17" y2="309.47" xlink:href="#linear-gradient"/>
    <linearGradient id="linear-gradient-4" x1="545.18" y1="112.91" x2="545.18" y2="309.47" xlink:href="#linear-gradient"/>
    <linearGradient id="linear-gradient-5" x1="494.99" y1="112.91" x2="494.99" y2="309.47" xlink:href="#linear-gradient"/>
    <linearGradient id="linear-gradient-6" x1="467.62" y1="112.91" x2="467.62" y2="309.47" xlink:href="#linear-gradient"/>
    <linearGradient id="linear-gradient-7" x1="605.19" y1="112.91" x2="605.19" y2="309.47" xlink:href="#linear-gradient"/>
    <linearGradient id="linear-gradient-8" x1="595.37" y1="112.91" x2="595.37" y2="309.47" xlink:href="#linear-gradient"/>
    <linearGradient id="linear-gradient-9" x1="622.74" y1="112.91" x2="622.74" y2="309.47" xlink:href="#linear-gradient"/>
  </defs>
  <g id="Layer_1-2" data-name="Layer 1">
    <g>
      <g>
        <path class="cls-17" d="m651.32,153.27c-.69-.11-2.66.96-2.93,1.38-.17.27.16.67.33.64.71-.11,1.33-.01,2.01.32,1.09.54,3.86-1.83.59-2.35Z"/>
        <path class="cls-21" d="m650.36,152.38c.38.86,4.84-1.03,5.35-1.76.92-1.31-6,.3-5.35,1.76Z"/>
        <path class="cls-22" d="m649.07,151.99c-1.28-.19-1.61.14-2.16.82-.21.26-.36.37-.7.36-3.64-.09-3.51,3.74-.67,1.88.74-.49,1.48-.96,2.34-1.25,1.24-.42,1.86-1.72,1.2-1.81Z"/>
        <path class="cls-13" d="m657.95,141.28c-1.23-.69.51-1.06-1.02-2.34-.2-.16-.33-.51-.34-.77-.06-1.87-1.82-2.13-.84-3.08.21-.21.41-.47.67-.57,1.06-.42,1.89-3.99-2.27-.92-.36.26-.48.92-.85,1.07-.54.21-1.42-1.27-2.14-.8-2.16,1.39-1.24,1.26-2.3,4.51-1.59,4.88,1.09,2.14.95,4.47-.04.68-.32,1.28-.35,2.43-.04,1.36,2.57.86,2.93-1.22.47-2.67.42-3.35.96-3.38,1.03-.04.11,1.62,1.59,1.8.94.12.18,1.17,1.6.93,1.12-.19,2.35-1.61,1.41-2.14Z"/>
        <path class="cls-12" d="m647.29,96.34c.61.19.87.45.83,1.09-.03.47.52.67.61,1.01.11.43-.49,1.27-.14,1.47.41.23.41.7.62,1.03,1.53,2.38,2.91-.65,2.05-1.87-.14-.19-.39-.34-.43-.55-.12-.54.11-1.15.7-.98,1.51.45,1.5-.93,2.69.36.71.77,2.09.07,1.83-.58-.13-.32-.85-2.07-1.19-2.08-1.07-.03-2.21-.5-3.14.43-.36.36-.45.09-.58-.21-2.09-4.77.39-3.49.02-5.71.07-1.29.14-1.34-.2-1.76-1.09-1.34.36-2.86-3.35-2.61-3.57.24-.13,6.23-1.51,6.95-.5.26-.61.64-.35,1.18.34.72.36,2.45,1.56,2.83Z"/>
        <path class="cls-14" d="m485.26,107.95c-.45-.08-.49.45-.6.84,1.22,3.11,5.68.09.6-.84Z"/>
        <path class="cls-2" d="m537.31,221.98c-2.72-.29-1.69,1.7,0,1.7s.84-1.61,0-1.7Z"/>
        <path class="cls-8" d="m549.38,123.77c.06,1.8-.59,2.76-.88,4.56.91,4.17.02,3,1.93,4.95.7.72,3.87.47,4.88-1.52,1.71-3.36-6.03-10.77-5.93-8Z"/>
        <path class="cls-32" d="m479.41,164.75c-.69-.72-2.02-1.13-2.26.02-.05.22.04.48-.01.7-.28,1.24-.8-.14-1.4,2.04-.12.43-.3.79-.75.9-4.79,1.2-4.54-.19-4.76,1.65-.31,2.65.81,2.75,2.06,5.48,1.62,3.54-3.56-.33,2.96,9,.67.95,3.57,3.27,5.94,3.05,2.75-.26.39-6.82.93-9.25.74-3.34-.83-5.5.54-6.19.55-.28.64-.6.27-.96-1.58-1.51-.79-3.61-3.51-6.45Z"/>
        <path class="cls-3" d="m596.84,143.68c1.38-.01,1.82-1.05,1.51-1.29-3.44-2.59-3.55.42-1.51,1.29Z"/>
        <path class="cls-30" d="m623.75,145.96c-1.17.19-1.85.16-1.72,1.85.14,1.72,4.64-.85,1.72-1.85Z"/>
        <path class="cls-16" d="m644.92,75.99c.14-.72.87-2.65.23-5.22-.18-.72.95-1.33-.4-2.26-2.23-1.54-2.52,1.62-3.26,4.49.61,4.34,3.13,4.59,3.43,2.99Z"/>
        <path class="cls-18" d="m644.26,140.28c.31-.73-.57-1.13.41-2.34,1.93-2.38,1.74-.7,1.83-4.8.04-1.68,3.15-1.16,2.48-2.42-.74-1.38-1.95-.9-1.97-2.12-.02-1.25-2.24-3,.07-4.96.49-.42,1.15-.71.66-1.55-.05-.08.09-.32.19-.44.62-.72,1.65-1.44.4-1.85-2.34-.78-2.4-.34-2.98-1.2-2.25-3.32-5.42,3.83-5.51,4.79-.08.85-.87.57-1.48,1.08-2.74,2.33-1.73,1.54-3.49,4.35-1.94,3.08-4.48,1.18-4.76,4.45-.12,1.37-.64,1.3-2.19,1.3v-.03c-.64,0-1.52-.11-1.98.46-1.84,2.25-1.27,3.96-.13,6.58.82,1.89,2.09.52,2.17,2.1.08,1.78-.67,3.84,3.37,2.25.17-.07.61.09.61.1-.21,1.85,5.19-2.38,6.76-.25.91,1.24,1.38-.68,4.18-1.43,1.79-.48.52-2.16,1.35-4.07Z"/>
        <path class="cls-26" d="m545.18,0c-67.55,0-122.52,54.96-122.52,122.51s54.96,122.52,122.52,122.52,122.51-54.96,122.51-122.52S612.74,0,545.18,0Zm106.28,171.19c-.3.34-.58.71-.85,1.09-2.3,3.22-9.48,5.29-12.66,7.99-1.13.96-2.37,1.76-3.73,2.36-1.71.75-.68,1.57-2.31,3.83-.61.84-.65,1.72-.19,2.67.9,1.87-1.28,1.18-.7,3,.9,2.85.97,2.94.79,3.54-.74,2.53,1.91,1.54-2.37,5.7-.44.42.32.67,1.27.76-21.36,22.93-51.8,37.3-85.53,37.3-55.35,0-101.84-38.67-113.88-90.41,6.5,12.31,17.07,27.65,27.35,36.63,4.24,3.71,2.63-1.44,2.72-2.44.09-1.07-.29-1.63-1.63-4.06-.64-1.16-.22-.72.96-.88.54-.07.92-.57.68-1.01-.66-1.24-.9-2.67-1.86-3.8-.67-.78-3.41-4.5-1.84-4.75,1.59-.26.94-2.02,3.66-1.6,1.54.24,2.79-2.25,1.84-4.09-.67-1.31-1.51-5.09-2.01-7.36-.58-2.66-2.06-2.07-3.12-6.08-1-3.76.23-2.34-1.31-4.83-1.39-2.25-.11-3.69.85-6.49.14-.41.28-.76.67-1,3.83-2.39,1.61-3.28,8.48-7.05,1.22-.04,2.06-.8,2.92-1.54,5.81-4.95,5.05-6.56,6.87-9.25,1.39-2.06,2.04-2.6,2.89-4.99.06-.17.99-2.65.92-2.81-.58-1.26.87-2.38-.33-2.93-2.07-.95-1.65.41-2.95.3-3.2-.25-5.7-.85-6.26-.55-.23.13-.63.17-.85.05-2.08-1.13-3.52.61-4.41-1.04-1.58-2.95-1.8-3.17-1-3.67.12-.07.23-.32.2-.45-.44-1.7,1.2.96,3.76-.44,1.74-.96,1.77.49,3.58-.06,2.1-.64,2.14-.09,3.12-.23.76-.1,1.33-.92,2.18-1.01,8.69-.87,5.27-1.22,6.45-2.3,2.4-2.19,5.8.77,6.97-1.9.61-1.39,2.38.22,2.96-1.57.67-2.08,3.49.62,3.12-2.57-.08-.71,1.76-1.44,2.22-2.24,1.88-3.22,4.48-3.73,2.82-5.51-1.62-1.74-.79-2.67-3.66-4.12-2.79-1.41-2.49-4-1.65-5.48.43-.77-.38-2.12-1.25-1.16-1.23,1.36-2.73,2.39-4.32,3.29-1.32.74-.52-.19-3.94.06-1.97.14-.88-2.47-.56-3.89.29-1.26-.54-2.4-1.47-1.67-.23.18-.42.42-.66.57-.08.05-.38-.09-.4-.18-.18-.82.65-1.45-.26-3.61-3.97-9.44.61-7.15,1.82-7.01,1.45,3.82.49,6.35,2.26,6.76.65.15.92.73,1.22,1.23,2.26,3.74,5.77,4.26,7.08,3.09.37-.33,1-.22,1.3.39.69,1.38-2.09,3.04,5.32,5.16,2.93.84,3,1.61,6.47,1.63,3.12.02,3.06.48,4.92.47,5.86-.03,2.61.57,3.76,1.33,1.3.87.97,2.95,2.74,3.5.66.21,1.34,1.76,2.27,2.41.99.7-.53.77-.16,1.74.24.62,2.84,3.66,3.27,4.17.56.65,3.3.79,4.51-.72,1.89-2.38-.18,6.97,1.6,9.46,0,0,.12,3.36.95,4.59.39.59.28,1.3.75,1.89,2.1,2.62,1.72,6.95,3.89,9.15,1.18,1.2,2.74,8.87,5.23,9.49,2.7.68,2.16-1.83,3.38-2.3,1.43-.55,1.35-.8,1.88-2.3.38-1.09,1.81-.11,1.81-2.17,0-1.77-1.03-2.15,0-3.35,1.39-1.64.71-6.5.38-7.38-.69-1.84,1.52-1.68,2.17-2.4,1.23-1.37,3.31-.6,3.5-2.55.13-1.44,3.31-2.24,5.28-5.07.9-1.3,2.11-2.26,3.55-2.86,3.75-1.57,1.25-3.46,3.02-4.43,1.25-.69,3.44.07,5.36-.98,1.19-.65,3.13.1,3.34-1.94.06-.59,1.09-.51,1.28-.18,1.01,1.72.83,4.39,4.33,5.88,1.91.82.38,1.74,2.1,3.03,3.95,2.98-.68,6.39,2.13,7.59,2.56,1.09,2.97-.45,5.8-2.35,1.24-.83,2.77,2.79,2.54,4.18-.02.13-.37.21-.13.38.92.63.87,1.94,1.8,2.55.28.79,1.04,1.48.42,2.47-.14.22,0,.74.17.99.52.74,1.12,5.45.19,6.3-.08.07-.14.26-.11.32.9,1.26-.27,2.92,1.27,3.59,1.79.79,4.64,4.6,4.62,5.14-.14,3.76,3.64,7.75,3.64,7.75-2.97,0-2.45-1.59-6.43-2.84-1.47-.46-2.34-3.03-4.24-2.86-1.23.11-6.34-.72-6.01.3.21.66.32,1.45.76,1.92.8.83,1.66,1.64,2.88,1.98,2.67.74,2.75,3.21,4.01,3.4,3.27.51,1.21,3.72,3.8,4.42.89.24.73.49,2.57,2.59,1.35,1.54.83,3.03,3.7,4.56,1.94,1.03.34,1.35,3.9,2.62,2.13.76,2.23,2.06,3.98,1.24.72-.34,2.5-.41,2.01.79-.47,1.13-.12,1.57.1,1.53,1.65-.32,1.17.94,2.73.66.75-.13,1.5-.43,2.21.15.09.07.33.02.48-.04,4.21-1.64,7.91.22,12.34-1.78.72-.33,4.06.95,3.88-1.96-.1-1.68-2.33.06-3.14-.31.36-.72,2.13-.76,1.85-1.8-.1-.36-1.49-.04-1.83.06-4.29,1.32-5.65-.21-7.23,1.7-.7.84-2.88.74-3.66.27-.25-.15-1.69-.14-2.07-.24-1.48-.38-4.12-.12-4.12-.12.97-1.52-.78-4.76,1.33-5.91,1.42-.77-.21-1.6-.7-2.44-.97-1.67-2.88-.87-3.45.07-.5.83-.41-.74-1.06-1.3-.98-.84-2.06-.77-2.06-.77.61-2.68,1.05-1.36-1.31-3.51-.86-.78,3.45-.39,2.26-2.36-.7-1.16-2.33-1.97-2.12-5.02.24-3.55-4.71-5.34-5.39-6.06-1.1-1.17-2.44.59-2.77-1.67-.11-.74-.37-1.46-.88-1.87-1.28-1.01-.01-2-1.75-2.26-3.47-.51,1-5.19.23-8.35-.26-1.06.87-2.35,1.18-1.69,1.21,2.52-1.4.78,4.69,2.45,2,.55.5,2.37,2.13,2.45.72.03.8.86,1.4.98,3.53.69,2.64.64,3.1,3.78.07.51.72.75,1.11.42.31-.26.54-.61.8-.93,1.77-2.16,1.51-.67,3.1-3.8.9-1.78,8.93-3.07,3.89-13.17-2.3-4.62-5.58-3.98-6.95-6.52-1.07-1.98-1.83-.86-2.3-2.56-.61-2.2,1.15-3.62,3.57-7.01,1.03-1.45,3.48-1.21,3.62-.64.24.97,1.4,2.32,1,2.63-3.01,2.36-2.56,2.14-2.17,4.46.28,1.68,3.01.66,3.73.44.45-.82,1.38-1.36,1.48-2.35.08-.78.28-1.51.63-2.19.21-.41-.32-1.26-1.12-1.18-.37.04-.54-.14-.56-.5,0-.12.02-.26-.04-.35-1.38-2.34,3.46-2.9,5.31-5.17.71-.87,2.12-.91,2.42-2.17.02-.07.19-.13.31-.16,4.85-1.15,7.17-9.58,7.89-10.29.72-.71-.11-1.47.1-2.2.2-.72.83-4.62,1.26-5.44,1.2-2.28.33-1.07.4-2.96.06-1.61-.46-1.76-.02-2.76,0,0,0-.01,0-.02,8.55,12.39,14.78,26.5,18.05,41.69-1.33-1.15-3.88.23-2.16,1.87,1.27,1.2-1.14.99.57,3.02,1.23,1.45-.54.98-1.17,2.26-.04.09-.26.11-.4.11-.22,0,.15-1.46.16-1.7.03-.66-.87-.56-1.02-1.1-.25-.93-1-.77-1.93-.62-.81.13-1.44.33-1.13,2.48.21,1.52,2.17.03,1.83,1.06-.52,1.62-.93,1.73.08,2.45,2.08,1.47,1.85-1.23,2.94-1.48,1.19-.28,1.57-1.07,2.52-3.2.52-1.16-.87-.78.33-2.04.21,1.12.41,2.24.58,3.37-.28.06-.49.19-.47.43.18,1.9-1.02,1.61-1.54,2.97-.57,1.48-1.5-.15-2.68,1.19-.13.14-2.11,2.41-2.12,2.6-.15,1.94-.38,2.75.35,2.65,1.01-.15.76-.55,1.2-1.54.35-.77,2.54-2.15,2.54-1.08,0,1.63-.9,2.92,2.9,2.96.35,0,.67-.1.93-.27.19,2.71.29,5.44.29,8.2,0,.72-.01,1.44-.03,2.16-.09-.12-.24-.16-.44-.13-1.26.21-1.57,1.85-2.51,2.36-3.27,1.76-4.15.65-5.94,1.5-.97.46-1.58,1.67-.89,2.45,8.92-2.56,7.94-2.09,9.52-4.99.12-.22.19-.39.24-.55-.21,8.77-1.39,17.3-3.43,25.5-.05.04-.08.08-.13.12-.57.51-.86,1.25-.42,1.99-1.7,6.31-3.92,12.42-6.61,18.27ZM462.75,39.7c.18.05.39.08.63.07,1.1-.36,1.85-.43,1.77-1.26-.03-.32-.13-.6-.38-.77.63-.6,1.26-1.19,1.9-1.77.64-.18.9.47,1.5.88.9.62-.56.73-.97,3.13-.2,1.17-2.21,2.64-4.79,6.3-1.87,2.65-3.69,1.51-4.32.3-.26-.5-.51-.85-.75-1.11,1.74-1.98,3.55-3.91,5.42-5.77Zm1.22,58.45c.35,1.78-.23,3.86-2.18-1.46-1.08-2.94-2.53-3.22-2.47-4.58,0-.06,0-.15-.04-.17-1.45-.83-.54-2.25-.84-3.16.55-5.54-2.73-5.75-1.44-10.49.61-2.22,1-4.48,0-6.73-1.42-3.2.27-2.17-.32-5.49-.16-.87.22-1.72.08-2.61-.16-1.04-.46-6.31.39-6.12.46.11.98-.42,1.44.25.7,1.04.6,9.99,1.25,11.08,1.88,3.17.25,6.19.48,9.66.11,1.68,1.78,2.51,1.45,3.88,1.17,1.55.23,3.13,1.44,5.87,2.08,4.72-.26,4.91.77,10.06Z"/>
      </g>
      <g>
        <path class="cls-20" d="m584,111.15c-.17,0-.35.08-.41.24s.09.37.25.33c.13-.03.19-.21.13-.34s-.21-.19-.35-.18"/>
        <path class="cls-5" d="m583.07,113.87c.02.53.03,1.06.05,1.59,0,.16.02.34.14.44.07.06.17.09.21.18.05.1-.03.22-.12.28s-.21.08-.3.13c-.49.26-.33,1.03-.63,1.49-.28-.86-.23-1.83.13-2.66,0,0-.41-.81-.4-1,.02-.41.25-.74.47-1.07.12-.18.33-.79.64-.55.29.22-.19.89-.18,1.17Z"/>
        <path class="cls-25" d="m582.08,118.73c-.14-.1-.35-.01-.44.13s-.08.33-.07.5c.01.15.03.3.12.43s.24.22.38.17c.22-.06.27-.36.22-.59-.05-.26-.15-.51-.3-.73"/>
        <path class="cls-31" d="m582.75,122.02c-.12.08-.22.22-.2.36s.17.27.3.21c.2-.09.09-.39-.04-.56"/>
        <path class="cls-15" d="m583.28,124.07c-.16.02-.14.28,0,.37s.3.12.41.23c.14.14.13.37.13.57s.07.44.27.49c.2.05.39-.16.38-.36s-.15-.37-.31-.5c-.07-.05-.15-.1-.21-.18-.09-.11-.11-.26-.14-.4s-.09-.29-.22-.35-.32.06-.28.19"/>
        <path class="cls-6" d="m584.94,127.11l-.21-.59c-.19,0-.32.23-.29.43s.17.35.3.49c.21.23.41.46.62.69.03.03.06.06.1.07.03,0,.07-.02.09-.04.18-.16.19-.46.03-.63-.13-.14-.34-.18-.51-.28s-.3-.33-.17-.48"/>
        <path class="cls-7" d="m530.97,124.78c.06.47.17.94.34,1.38.35-.14.47-.61.34-.97s-.43-.62-.72-.86c.05.16.1.32.15.48"/>
      </g>
    </g>
    <g>
      <g>
        <path class="cls-9" d="m431.79,313.19c.45.01,1.07.04,1.87.08,2.01.11,3.35.16,4.02.16.88,0,2.49-.06,4.83-.18.59-.03,1.04-.05,1.34-.06l.02,1.6c-1.52,0-2.49.19-2.89.57-.4.38-.6,1.32-.6,2.82v19.02c0,1.55.2,2.5.6,2.86.4.35,1.36.53,2.89.53v1.58c-1.7-.08-2.97-.13-3.83-.16-.86-.03-1.55-.04-2.06-.04-.58,0-1.32.01-2.23.04-.91.03-2.23.08-3.96.16v-1.58c1.54,0,2.5-.19,2.89-.57.39-.38.58-1.32.58-2.82v-19.02c0-1.52-.2-2.47-.59-2.84-.39-.37-1.35-.55-2.88-.55v-1.6Z"/>
        <path class="cls-9" d="m446.95,313.19c1.04.07,1.92.12,2.65.15.73.03,1.38.05,1.94.05.46,0,1.03-.02,1.71-.05.68-.03,1.56-.08,2.65-.15l15.71,21.19v-15.36c0-1.92-.23-3.11-.69-3.56-.46-.45-1.51-.68-3.15-.68v-1.6c1.06.07,1.98.12,2.76.15.78.03,1.47.05,2.09.05.38,0,.87-.02,1.48-.05.6-.03,1.5-.08,2.68-.15v1.6c-1.45.04-2.38.27-2.8.68-.42.41-.63,1.59-.63,3.52v11.85c0,2.52,0,4.65-.03,6.39-.02,1.73-.06,3.46-.11,5.18l-2.09-.24-18.73-25.2v19.38c0,2,.23,3.2.68,3.62.45.41,1.51.62,3.16.62l-.02,1.58c-1.21-.08-2.18-.13-2.9-.16-.72-.03-1.35-.04-1.89-.04-.32,0-.76.01-1.34.04-.58.03-1.58.08-3.02.16v-1.58c1.54-.01,2.53-.24,2.97-.67.44-.43.66-1.62.66-3.57v-18.18c0-1.51-.2-2.45-.61-2.83-.41-.37-1.33-.56-2.78-.56h-.37l.02-1.6Z"/>
        <path class="cls-9" d="m479.95,313.19c.58.04,1.21.07,1.88.09.68.02,1.69.03,3.05.03.75,0,1.97-.02,3.65-.06,1.68-.04,3-.06,3.94-.06,4.9,0,8.74,1.29,11.51,3.86,2.77,2.58,4.16,6.14,4.16,10.71s-1.31,8.17-3.94,10.67c-2.63,2.5-6.37,3.75-11.24,3.75-.82,0-2.08-.03-3.79-.08s-3-.08-3.88-.08c-.93,0-1.84.01-2.72.04-.88.03-1.75.07-2.62.12v-1.58c1.46,0,2.38-.19,2.77-.58.39-.39.58-1.32.58-2.81v-19.02c0-1.5-.19-2.43-.58-2.8-.39-.37-1.31-.57-2.77-.59v-1.6Zm8.48,1.6v25.77h2.84c1.73,0,3.07-.09,4.01-.28.94-.18,1.76-.49,2.47-.93,1.56-.91,2.74-2.35,3.52-4.32.78-1.97,1.17-4.45,1.17-7.43,0-4.57-.89-7.85-2.67-9.84-1.78-1.98-4.78-2.98-9-2.98h-2.35Z"/>
        <path class="cls-9" d="m511.2,313.19c.45.01,1.07.04,1.87.08,2.01.11,3.35.16,4.02.16.88,0,2.49-.06,4.83-.18.59-.03,1.04-.05,1.34-.06l.02,1.6c-1.52,0-2.49.19-2.89.57-.4.38-.6,1.32-.6,2.82v19.02c0,1.55.2,2.5.6,2.86.4.35,1.36.53,2.89.53v1.58c-1.7-.08-2.97-.13-3.83-.16-.86-.03-1.55-.04-2.06-.04-.58,0-1.32.01-2.23.04-.91.03-2.23.08-3.96.16v-1.58c1.54,0,2.5-.19,2.89-.57.39-.38.58-1.32.58-2.82v-19.02c0-1.52-.2-2.47-.59-2.84-.39-.37-1.35-.55-2.88-.55v-1.6Z"/>
        <path class="cls-9" d="m538.82,312.82h2.15l9.33,25.65c.32.87.68,1.44,1.09,1.71.41.28,1.08.41,2,.41v1.58c-1.68-.08-2.91-.13-3.68-.16-.77-.03-1.38-.04-1.84-.04-.57,0-1.29.01-2.19.04-.89.03-2.17.08-3.82.16v-1.58c1-.03,1.71-.16,2.14-.4.43-.24.64-.63.64-1.17,0-.18,0-.36-.03-.51-.02-.16-.05-.3-.09-.41l-2.15-6.37h-8.6l-1.66,4.67c-.03.08-.06.18-.1.3-.39,1.12-.59,1.89-.59,2.33,0,.55.15.94.46,1.15.31.22.94.36,1.88.42v1.58c-.71-.05-1.39-.09-2.04-.12-.65-.03-1.25-.04-1.78-.04-.46,0-1,.01-1.63.04-.62.03-1.3.07-2.02.12v-1.58c.89,0,1.54-.14,1.95-.41.41-.28.78-.89,1.12-1.85l9.44-25.51Zm-.69,6.51l-3.86,10.78h7.51l-3.65-10.78Z"/>
      </g>
      <g>
        <path class="cls-10" d="m360.83,360.9l-.06.06.07-.12-.05.04-2.52-2.28-.16-.15-1.37-1.25-.06.05.07-.12c-.62-.05-.3-.73-1.35-.64l-.17,1.15c-.18,1.91-.75,4.9-1.67,6.47-.26.44-.47.92-.72,1.34-.22.37-.74,1.12-.95,1.34-.63.68-1.88,2.06-2.65,2.47-.28.15-.45.33-.68.46-.27.16-.53.33-.81.47-.58.29-1.18.52-1.75.81-.38.19-1.18.47-1.58.58-.43.12-1.04.23-1.53.4-.61.21-2.63.54-3.33.57-.82.04-1.14.15-1.81.16-1.04.02-1.07.02-1.66.06h-.26s-1.53,0-1.53,0l-.7-.04-.06-.02c-1.21,0-1.58-.01-2.79-.15-.67-.08-1.93-.25-2.47-.27-.56-.02-1.82-.23-2.68-.38-.46-.08-1.83-.26-2.33-.43-.33-.11-2.36-.49-2.69-.54-.78-.13-1.74-.42-2.51-.56-.86-.16-1.67-.44-2.56-.64-.3-.07-2.31-.56-2.6-.69-.66-.29-1.78-.53-2.49-.74-.35-.1-.74-.22-1.21-.41-.06-.03-.97-.3-1.15-.33-.71-.11-1.67-.61-2.39-.78-.73-.17-1.46-.57-2.34-.77-.73-.17-1.99-.81-2.69-.97-.73-.17-1.66-.63-2.37-.86-1.75-.57-3.42-1.3-5.13-1.97-2.93-1.14-6.79-2.74-9.56-3.98-3.05-1.37-6.46-2.82-9.48-4.33-.61-.3-1.44-.65-2.34-1.11-.77-.39-1.51-.69-2.39-1.13-.57-.29-2.04-1.11-2.56-1.25-.25-.07-1.68-.85-2.08-1.02-.22-.1-.75-.39-1.13-.59-.38-.21-.69-.32-1.1-.56-.43-.25-.81-.43-1.23-.68-.2-.12-.81-.42-1.11-.62-.46-.31-4.52-2.87-4.72-2.89l1.83-1.25-.05-.09.05.06,1.26-1-.03-.08c.3-.03,1.2-.98,1.42-1.21.22-.24,1.25-1.09,1.15-1.35h.19c-.08-.18.51-.76.69-.97.21-.25.48-.74.68-1.04.54-.81.73-1.3,1.07-2,.67-1.36,1.1-3.11,1.2-4.49l.11-1.41v-.51s-.08-.7-.08-.7l.03-.07c0-1-.55-3.49-1.01-4.55-.29-.68-.5-1.33-1.02-2.18-.19-.32-1-1.68-1.36-1.71.07-.18-.22-.49-.51-.51l.07-.12-2.57-2.24-.16-.15-1.13-1.04h.41s.26-.02.26-.02h3.27s23.93,0,23.93,0v3.36l-.03,1.1v.26s-.04,1.02-.04,1.02l-.09,3.96v.26s-4.87-.32-4.87-.32c-.17,0-.16-.02-.38,0h-.26s-.83-.05-.83-.05h-.26s-.77-.01-.77-.01l-.96.04c-2.17.07-4.71.47-6.79,2.05-1.32,1.01-1.64,1.78-2.24,3.03-.26.54-.62,2.53-.56,3.44v.26s0,.26,0,.26c.07.87.07,1.31.17,2.19.08.71.42,1.58.51,2.18.18,1.16,1.26,3.24,1.55,3.87.44.93,1.45,2.51,2.27,3.46.33.39,2.59,3.03,3.12,3.08l-.07.12.05-.05,2.52,2.28.06-.05-.07.12.05-.05,2.27,2.03.06-.06-.07.12c.26.02.88.63,1.19.8.4.21.82.54,1.23.75.43.22,2.44,1.29,2.44.44v-.06c0-.16-.77-.94-1.02-.96l.05-.06-2.55-2.31-.06.06.07-.12c-.24-.03-1.49-1.25-1.78-1.49-.26-.22-1.84-.92-2.13-.94-.04-.16-.32-.6-.43-.72-.21-.22-.22-.35-.32-.53-.27-.48-.58-.85-.75-1.26-.31-.73-.82-1.54-1.13-2.45-.73-2.11-1.14-3.6-1.14-5.97,0-6.49,4.72-7.8,9.91-7.92l.51.02h.51l.77.03.03.08-.12,9.07v.26s0,5.11,0,5.11c.05.54-.3,1.27.28,1.84.25.24,1.67,1.59,1.9,1.61l-.07.12.05-.05,2.52,2.28.06-.05-.07.12c.59.07.84,1.25,1.41.39l.04-10.99.02-.19-.02-.32.02-.19-.02-.32.02-.19.08-4.47v-.19s0-.32,0-.32l-.02-.19.04-2.17.02-.26v-.64s.77,0,.77,0c.18,0,.32-.14.32-.32,0-.24-.04-.12-.06-.38-.38-.03-.67-.57-.96-.77l.03-2.05h.02v-11.99h6.98s4.35,0,4.35,0c.46,0,.73-.52.45-.9l-2.98-4.06c-.29-.39-.75-.62-1.23-.62h-18.57c-.41,0-.68-.01-.77-.01-.8,0-1.55,0-2.36,0-.13,0-3.09,0-7.66.01h0c-14.25.03-44.17.08-52.96.08h-13.48v.13h-.13v.32c0,.19,2.14,2.15,2.36,2.17l-.07.12.05-.05,2.52,2.28.06-.05-.07.12.7.52h10.48s-.03,6.64-.03,6.64l.03,4.03h-.19c-.2,0-1.15-.22-1.47-.25-.54-.05-.98-.1-1.54-.19-.88-.13-2.45-.2-2.92-.2h-.89c-.17-.79-.44-1.59-.81-2.71-.19-.57-.31-.82-.53-1.33-.18-.43-.35-.92-.52-1.22-.35-.65-.89-1.51-1.4-2.33-.24-.39-.52-.75-.85-1.07-.15-.15-.35-.4-.42-.49-.16-.21-.43-.23-.35-.44l-.05.06-3.54-3.19-.06.06.07-.12c-.38-.04-1.88-1.88-2.37-1.92l.07-.12c-.12-.02-.91-.56-1.07-.67-.35-.25-.75-.33-1.15-.52-.46-.22-1.74-.48-2.14-.48h-.7l-.32.02-1.53.26c-.3.18-1.26.38-1.69.59-.64.31-1.16.6-1.71.98-1.01.7-1.59,1.85-1.59,3.4l-5.14-4.57-.48-.05h-.26c-2.1.18-4.13.05-4.81.05-1.14,0-2.23,0-3.39,0-1.25,0-2.03-.03-3.56-.03-2,0-4.93-.13-6.65,0h-.26s-2.04,0-2.04,0c-.33.03-.14.02-.45.14v.32c.18.26,1.58,1.64,1.86,1.66l-.07.12.05-.05,2.53,2.27.28.29-.05.05c.57.05.41.77,1.47.77.75,0,1.49,0,2.24,0,1.33,0,3.33-.08,4.41,0h2.3l.26.02,7.92-.02h1.28c.43.02,2.65-.17,2.78.02.06.09.35.74.48.98.06.11.42.78.49.86.4.47,2.86,3.07,3.29,3.12l-.07.12.05-.05,2.52,2.28.06-.05-.07.12c.19.02,1.33,1.04,1.52,1.23.48.49,1.07.76,1.65,1.16.93.63,2.76,1.3,3.73,1.38-.04.06-2.55.83-2.7.86-.75.17-2.05.86-2.89,1.28-1.48.73-3.84,2.72-4.39,4.11-.72,1.84-.17,3.68.44,5.3.39,1.03.97,1.89,1.42,2.59.24.38,1.62,2.12,2.06,2.16l-.07.12.05-.05,2.53,2.27.16.16,2.39,2.16.05-.05-.07.12c.28.02.77.57,1.05.74.4.24.78.39,1.2.59.7.35,1.69.36,2.18.36,1.81,0,3.2-1.43,4.09-2.64.8-1.09,1.46-2.66,1.75-4.16.28-1.5.67-3.36.67-4.68,0-1.16.09-3.57,0-4.6l-.13-1.79.19-.02,2.05-.12.64-.05,2.24.02.7.05c.23,0,.04.01.21-.06l.06,11.25v1.02s0,.38,0,.38l2.31,2.1.05-.05-.07.12.06-.06,2.52,2.28.05-.05-.07.12c.38.04.51.51.77.51h.32c.07-.2.13-.14.13-.38l-.03-8.88.03-7.54c.3.15,1.72.49,2.22.6.64.15,2.08.84,2.38.87l.02.32-.02.32.02.19-.02.32.02.19-.02.32v.19s.06.7.06.7v.51s.02,1.53.02,1.53v.26s.12,3.45.12,3.45l.12,2.17c.03.44.05.81.11,1.42.06.53-.03.43.28.74.18.18.4.5.69.53l-.07.12.06-.05,2.52,2.28.05-.05-.07.12c.45.05,1.85,1.79,2.17,1.79h.32v-.13h.13l-.02-.57-.04-.7-.22-4.15-.02-.7-.03-1.53c0-.1-.06-.31-.06-.32v-.26c.03-.51-.04-1.62-.04-1.81,0-.42,0-.78,0-1.21,0-.81,0-1.59,0-2.4,0-.83,0-1.56,0-2.4,0-.6-.08-1.68.04-3.18v-.51s.06-.77.06-.77l-.02-.19.04-1.79v-.51s.03-1.34.03-1.34v-.51s.03-1.4.03-1.4v-.26s.05-.7.05-.7v-.51s.03-2.04.03-2.04l.02-.51-.02-4.41-.14.06-.52-.51h.64s.19-.03.19-.03l8.31.03c-.46.69-.7,2.03-.7,2.62v.7c0,.52.14,1.26.3,1.95.17.74.55,1.35.75,2.06.08.28.8,1.52,1.1,1.82.23.22,1.53,1.44,1.75,1.46l-.07.12.06-.05,2.52,2.28.05-.05-.07.12c.37.03.56.41.78.63.43.42.55.07.82-.11-.99-2.07-1.85-3.47-1.85-5.24,0-.11-.06-.28-.06-.32,0-.61.13-1.85.48-2.59.25-.54,1.12-2.03,1.7-2.08l-.07-.12s1.5-.74,1.71-.81c.49-.17,1.15-.34,1.61-.34h.96c.38,0,1.18,0,1.44.54.24.52.46,1.04.57,1.55.28,1.22.56,2.01.68,3.28.13,1.34.11,2.51-.12,3.66-.13.64-.27,1.22-.42,1.78-.15.57-.35.91-.59,1.61-.33.97-1.21,2.11-1.61,2.83-.44.79-1.7,2-2.36,2.66-.78.78-1.8,1.69-2.74,2.31-.51.34-1.03.71-1.44.92-.27.14-.48.3-.81.47-.28.14-.61.28-.84.44-.16-.21-3.29-1.76-3.89-2.06-.72-.36-3.35-1.58-4.16-1.52h-.26c-.64.04-.77.23-1.03.64-.12.18-.32.32-.44.5-.05.08-.19.32-.31.53-.5.79-.9,1.56-.9,2.29v.45c0,.33.5,1.24.96,1.28l-.07.12.05-.05,2.52,2.28.06-.05-.07.12c.27.03,1.99,1.71,2.28,2,.6.6,2.2.85,2.64.81h.26s.58-.06.58-.06c1.34-.08,5.1-.74,7.05-1.7l7.97,4.7-.07.12c.2.02,4.19,2.45,4.55,2.73.26.2,2.09,1.17,2.33,1.26.37.13,1.86.9,2.21,1.09,1.44.8,3.04,1.52,4.69,2.34,1.47.73,2.97,1.36,4.64,2.19,1.59.8,3.25,1.43,4.9,2.26,1.56.78,3.18,1.33,4.52,2,1.62.82,3.53,1.39,4.94,2.08,1.49.74,3.14,1.18,4.86,1.98.84.39,1.55.61,2.43.96.67.26,1.75.57,2.38.87.62.3,1.83.66,2.47.92.64.25,1.87.6,2.51.87.65.28,1.79.6,2.63.88.93.31,1.71.59,2.57.81,1.32.35,3.15,1.06,4.77,1.41.77.17,1.48.44,2.38.64.37.08,1.09.32,1.32.35.44.06,1.11.24,1.38.33.51.17,2.14.53,2.75.61.83.1,1.49.34,2.42.49,1.33.22,3.42.61,4.99.76.37.04,4.97.44,4.98.45h3.9s3.04-.3,3.4-.34c.53-.07,1.14-.19,1.64-.3.49-.11,1.24-.36,1.85-.46.69-.1,2.51-.87,3.45-1.34.67-.33,1.09-.61,1.71-.98.32-.19,1.35-1.1,1.57-1.12l-.07-.12.06.06,1.02-1.02-.06-.06c.42-.05,1.58-1.98,1.77-2.25.57-.82.79-1.64,1.27-2.64.36-.74.6-2.18.77-2.87.17-.69.34-2.68.41-2.79v-.64l-.58-.57Zm-159.52-41.25c-.46.68-1.28,1.3-2.15,1.3h-.96c-.4,0-2.52-.65-2.56-.64-.03-.35-.25-.65-.33-1.2-.04-.24-.06-.65.04-.95.16-.51.71-1.82,1.38-1.88l-.06-.13c.16-.01,1.08-.57,1.35-.69.21-.1.83-.34,1.12-.42.78-.22,1.68-.42,2.44-.42l.28,2.3-.03.26v.26c.04.42-.19,1.71-.53,2.21Zm4.22,19.98c-.4.84-1.2,2.43-2.02,2.93-.68.41-.75.66-1.72.96-.62.19-1.07.05-1.74.05-1.07-1.94-1.99-5.15-.14-6.98.99-.99,1.98-1.92,3.31-2.57,1.24-.62,2.58-1.27,3.67-1.5,0,2.13-.71,5.74-1.36,7.11Zm24.3-23.79l-.04,2.94v.51s-.05,1.53-.05,1.53v.26s-.04.58-.04.58v.19s-.06,3.71-.06,3.71v.26s0,.26,0,.26l-.02,1.79v.26s0,.77,0,.77l-.05.58v.19s0,.32,0,.32l-.02.19.02.32-.02.19.02.32-.02.19v1.28s-4.63-4.13-4.63-4.13l-.05-9.29v-.26s0-3.07,0-3.07c0,0-.05-.13-.04-.11l.13-.13c.16.07-.07.05.18.05h.19l.32-.02.19.02.32-.02.19.02.32-.02.19.02.32-.02.19.02.32-.02.19.02.32-.02.19.02.32-.02.19.02.32-.02.19.02h.38s0,.32,0,.32Z"/>
        <g>
          <path class="cls-9" d="m317.23,345.41c-.26,0-.47-.08-.62-.23-.15-.15-.25-.34-.31-.56s-.06-.45,0-.68c.06-.23.16-.41.31-.56,2.64-2.15,4.85-3.97,6.64-5.48,1.79-1.51,3.22-2.86,4.29-4.07,1.07-1.2,1.84-2.33,2.29-3.39.45-1.05.68-2.2.68-3.45,0-.79-.06-1.56-.17-2.32-.11-.75-.34-1.41-.68-1.98-.34-.56-.8-1.03-1.38-1.38-.58-.36-1.35-.54-2.29-.54s-1.68.12-2.32.37c-.64.25-1.18.55-1.61.9-.43.36-.74.73-.93,1.13-.19.4-.28.73-.28.99,0,.11,0,.26.03.45.02.19.07.37.17.54.09.17.25.32.48.45.23.13.55.2.96.2.64,0,1.06.19,1.27.56.21.38.31.79.31,1.24s-.22.87-.65,1.24c-.43.38-1.03.56-1.78.56s-1.3-.13-1.75-.4c-.45-.26-.81-.59-1.07-.99-.26-.4-.44-.83-.54-1.3-.09-.47-.14-.91-.14-1.33,0-.87.2-1.7.59-2.49.4-.79.97-1.48,1.72-2.06.75-.58,1.69-1.05,2.8-1.38,1.11-.34,2.4-.51,3.87-.51s2.78.2,3.93.59c1.15.4,2.1.93,2.85,1.61.75.68,1.33,1.48,1.72,2.4.4.92.59,1.89.59,2.91,0,1.47-.42,2.88-1.24,4.24-.83,1.36-1.88,2.63-3.16,3.81-1.28,1.19-2.68,2.28-4.21,3.28-1.53,1-2.99,1.91-4.38,2.74-.19.08-.28.21-.28.4,0,.15.09.23.28.23h8.14c.49,0,.91-.05,1.27-.14.36-.09.68-.26.96-.51.28-.24.56-.6.85-1.07.28-.47.57-1.1.88-1.89.08-.15.21-.27.4-.37.19-.09.38-.13.56-.11.19.02.36.08.51.2.15.11.23.26.23.45-.3,1.28-.6,2.51-.9,3.7-.3,1.19-.43,2.51-.4,3.98h-18.47Z"/>
          <path class="cls-9" d="m367.68,331.9c0,2.3-.35,4.33-1.05,6.1-.7,1.77-1.66,3.26-2.88,4.46-1.22,1.21-2.69,2.12-4.41,2.74-1.71.62-3.59.93-5.62.93-1.77,0-3.43-.29-4.97-.88-1.54-.58-2.9-1.45-4.07-2.6-1.17-1.15-2.08-2.6-2.74-4.35-.66-1.75-.99-3.81-.99-6.19,0-1.92.34-3.69,1.02-5.31.68-1.62,1.62-3,2.82-4.15,1.2-1.15,2.63-2.05,4.27-2.71,1.64-.66,3.44-.99,5.4-.99,1.84,0,3.58.29,5.2.88,1.62.58,3.02,1.42,4.21,2.51,1.19,1.09,2.12,2.44,2.8,4.04.68,1.6,1.02,3.44,1.02,5.51Zm-5.71.62c0-1.43-.13-2.83-.4-4.21-.26-1.37-.69-2.6-1.27-3.67-.58-1.07-1.34-1.94-2.26-2.6-.92-.66-2.06-.99-3.42-.99-1.47,0-2.71.33-3.73.99-1.02.66-1.84,1.53-2.46,2.63-.62,1.09-1.07,2.33-1.36,3.7-.28,1.38-.42,2.8-.42,4.27,0,1.28.13,2.6.4,3.95.26,1.36.7,2.58,1.3,3.67.6,1.09,1.39,2,2.37,2.71.98.72,2.18,1.07,3.62,1.07s2.64-.34,3.62-1.02c.98-.68,1.76-1.56,2.34-2.66.58-1.09,1.01-2.33,1.27-3.7.26-1.37.4-2.76.4-4.15Z"/>
          <path class="cls-9" d="m371.52,345.41c-.26,0-.47-.08-.62-.23-.15-.15-.25-.34-.31-.56s-.06-.45,0-.68c.06-.23.16-.41.31-.56,2.64-2.15,4.85-3.97,6.64-5.48,1.79-1.51,3.22-2.86,4.29-4.07,1.07-1.2,1.84-2.33,2.29-3.39.45-1.05.68-2.2.68-3.45,0-.79-.06-1.56-.17-2.32-.11-.75-.34-1.41-.68-1.98-.34-.56-.8-1.03-1.38-1.38-.58-.36-1.35-.54-2.29-.54s-1.68.12-2.32.37c-.64.25-1.18.55-1.61.9-.43.36-.74.73-.93,1.13-.19.4-.28.73-.28.99,0,.11,0,.26.03.45.02.19.07.37.17.54.09.17.25.32.48.45.23.13.55.2.96.2.64,0,1.06.19,1.27.56.21.38.31.79.31,1.24s-.22.87-.65,1.24c-.43.38-1.03.56-1.78.56s-1.3-.13-1.75-.4c-.45-.26-.81-.59-1.07-.99-.26-.4-.44-.83-.54-1.3-.09-.47-.14-.91-.14-1.33,0-.87.2-1.7.59-2.49.4-.79.97-1.48,1.72-2.06.75-.58,1.69-1.05,2.8-1.38,1.11-.34,2.4-.51,3.87-.51s2.78.2,3.93.59c1.15.4,2.1.93,2.85,1.61.75.68,1.33,1.48,1.72,2.4.4.92.59,1.89.59,2.91,0,1.47-.42,2.88-1.24,4.24-.83,1.36-1.88,2.63-3.16,3.81-1.28,1.19-2.68,2.28-4.21,3.28-1.53,1-2.99,1.91-4.38,2.74-.19.08-.28.21-.28.4,0,.15.09.23.28.23h8.14c.49,0,.91-.05,1.27-.14.36-.09.68-.26.96-.51.28-.24.56-.6.85-1.07.28-.47.57-1.1.88-1.89.08-.15.21-.27.4-.37.19-.09.38-.13.56-.11.19.02.36.08.51.2.15.11.23.26.23.45-.3,1.28-.6,2.51-.9,3.7-.3,1.19-.43,2.51-.4,3.98h-18.47Z"/>
          <path class="cls-9" d="m405.47,336.08c1.36,0,2.64.23,3.84.68,1.2.45,2.27,1.07,3.19,1.86.92.79,1.65,1.72,2.17,2.8.53,1.07.79,2.25.79,3.53,0,2.22-.44,4.06-1.33,5.51-.89,1.45-2,2.62-3.33,3.5-1.34.88-2.79,1.51-4.35,1.86-1.56.36-3.04.54-4.43.54-.9,0-1.84-.08-2.8-.23-.96-.15-1.82-.39-2.57-.71-.75-.32-1.38-.74-1.86-1.27-.49-.53-.73-1.19-.73-1.98s.24-1.47.73-1.92c.49-.45,1.11-.68,1.86-.68.49,0,.96.14,1.41.42.45.28.68.72.68,1.33,0,.34-.08.61-.23.82-.15.21-.23.48-.23.82,0,.23.14.43.42.62.28.19.64.35,1.07.48.43.13.88.23,1.36.31.47.08.91.11,1.33.11,2.41,0,4.23-.79,5.45-2.37,1.22-1.58,1.84-3.82,1.84-6.72,0-2.3-.72-4.12-2.15-5.48-1.43-1.36-3.9-2.13-7.4-2.32-.49-.04-.73-.25-.71-.65.02-.4.2-.67.54-.82,2.64-.94,4.57-2.14,5.79-3.59,1.22-1.45,1.84-3.3,1.84-5.56,0-.79-.06-1.56-.17-2.32-.11-.75-.34-1.41-.68-1.98-.34-.56-.8-1.03-1.38-1.38-.58-.36-1.35-.54-2.29-.54s-1.69.13-2.34.4c-.66.26-1.2.57-1.61.93-.41.36-.73.73-.93,1.13-.21.4-.31.73-.31.99,0,.11,0,.26.03.45.02.19.08.37.17.54.09.17.25.31.48.42.23.11.55.17.96.17.64,0,1.07.19,1.3.56.23.38.34.79.34,1.24s-.22.87-.65,1.24c-.43.38-1.03.56-1.78.56s-1.3-.13-1.75-.4c-.45-.26-.81-.59-1.07-.99-.26-.4-.44-.83-.54-1.3-.09-.47-.14-.91-.14-1.33,0-.87.2-1.7.59-2.49.4-.79.97-1.48,1.72-2.06.75-.58,1.69-1.05,2.8-1.38,1.11-.34,2.4-.51,3.87-.51s2.78.2,3.93.59c1.15.4,2.1.93,2.85,1.61.75.68,1.33,1.48,1.72,2.4.4.92.59,1.89.59,2.91,0,1.24-.25,2.37-.73,3.39-.49,1.02-1.11,1.92-1.86,2.71-.75.79-1.6,1.45-2.54,1.98-.94.53-1.88.92-2.82,1.19-.08.04-.11.11-.11.23,0,.08.06.11.17.11Z"/>
        </g>
      </g>
    </g>
    <g>
      <path class="cls-28" d="m0,134.92c0,67.45,54.88,122.33,122.33,122.33,30.76,0,60.15-11.46,82.78-32.27,22.48-20.68,36.35-48.76,39.05-79.08l1.71-19.2h-126.72v28.98h94.19c-4.18,18.3-13.96,35.19-27.86,47.97-17.26,15.87-39.69,24.62-63.16,24.62-51.47,0-93.35-41.87-93.35-93.35S70.86,41.58,122.33,41.58c16.54,0,32.78,4.38,46.98,12.67,6.9,4.03,13.28,8.96,18.99,14.65l5.1,5.1,20.49-20.5-5.1-5.1c-7.45-7.45-15.82-13.9-24.86-19.18-18.62-10.87-39.92-16.62-61.59-16.62C54.88,12.59,0,67.47,0,134.92"/>
      <path class="cls-1" d="m269.91,28.48c-8.85,5.82-16.57,13.77-22.35,22.99l-1.69,2.69,21.49,21.51,2.47-4.98c3.6-7.26,9.27-13.68,15.96-18.08,11.03-7.26,24.68-9.43,37.44-5.94,15.94,4.37,28.69,17.98,32.48,34.7,1.39,6.14,4.28,18.9-20.35,48.31-10.49,12.53-21.45,25.06-32.07,37.19l-.21.24c-7.77,8.88-15.8,18.06-23.76,27.37l-49.97,58.47h156.1v-28.89h-93.4l9.24-10.81c7.78-9.11,15.79-18.26,23.55-27.12l.22-.25c10.7-12.22,21.75-24.86,32.46-37.65,13-15.53,21.23-29.32,25.16-42.17,4.25-13.89,2.73-24.39,1.21-31.07-6.11-26.99-26.93-49.04-53.03-56.18-6.51-1.78-13.16-2.65-19.77-2.65-14.5,0-28.84,4.2-41.18,12.33"/>
    </g>
    <path class="cls-4" d="m589.99,276.82c-15.78,0-30.67-4.54-44.26-13.49l-.55-.36-.55.36c-13.6,8.95-28.49,13.49-44.26,13.49-44.34,0-84.82-35.13-104.28-52.01-3.78-3.28-6.75-5.86-8.47-7.05l-8.82-6.1,10.76-1.65c4.09-.62,8.28-.94,12.43-.94,14.44,0,28.68,3.87,40.1,10.9l1.36-1.4c-3.1-4.78-6.15-9.99-9.06-15.48-8.53-16.11-12.93-29.17-13.12-29.72l-2.2-6.61,6.89,1.04c.85.13,21.21,3.24,44.91,9.71l1.24.34.03-1.28c.38-18.13,3.28-32.3,3.61-33.85l1.17-5.46,4.96,2.56c.66.34,16.32,8.46,34.15,20.77l3.7,2.55.54-.93c9.5-16.26,19.68-28.77,21.62-31.12l3.28-3.96,3.28,3.96c1.94,2.34,12.12,14.85,21.62,31.12l.54.93,3.7-2.55c17.84-12.31,33.5-20.43,34.15-20.77l4.96-2.56,1.17,5.46c.13.61,3.22,15.29,3.6,33.85l.03,1.28,1.24-.34c23.7-6.47,44.05-9.58,44.91-9.71l6.89-1.04-2.2,6.61c-.18.54-4.52,13.5-13.11,29.72-2.91,5.48-5.95,10.69-9.06,15.48l1.36,1.4c11.42-7.03,25.66-10.9,40.1-10.9,4.15,0,8.33.32,12.42.94l10.77,1.66-8.82,6.1c-1.72,1.19-4.7,3.78-8.47,7.05-19.45,16.88-59.92,52.01-104.27,52.01h-.01Z"/>
    <g>
      <path class="cls-27" d="m501.58,216.11c-.87-7.32-.04-15.27,1.8-23.25-34.64-14.28-78.05-20.83-78.05-20.83,0,0,17.41,52.23,50.46,75.89,33.04,23.66,69.21,9.79,69.21,9.79,0,0-39.37-7.47-43.42-41.6Z"/>
      <path class="cls-29" d="m545.18,257.66c2.7-.76,38.16-11.31,38.16-44.27s-35.37-76.2-38.16-79.56c-2.78,3.36-38.16,46.64-38.16,79.56s35.46,43.51,38.16,44.27Z"/>
      <path class="cls-19" d="m513.61,164.11c-17.8-12.29-33.69-20.49-33.69-20.49,0,0-3.34,15.59-3.54,34.89,9.32,2.63,19.06,5.77,28.27,9.44,2.31-8.28,5.55-16.46,8.96-23.84Z"/>
      <path class="cls-11" d="m474.92,252.49c-8.74-5.24-16.74-12.26-23.85-19.85-13.69-14.64-37.49-21.97-60.84-18.41-.11.02-.17.03-.17.03,14.27,9.87,89,90.96,155.13,43.53l-.18-.08s-34.41,16.18-70.08-5.22Z"/>
      <path class="cls-23" d="m614.57,247.91c33.04-23.66,50.46-75.89,50.46-75.89,0,0-43.41,6.55-78.05,20.83,1.84,7.98,2.67,15.93,1.8,23.25-4.04,34.13-43.42,41.6-43.42,41.6,0,0,36.16,13.87,69.21-9.79Z"/>
      <path class="cls-33" d="m613.98,178.5c-.21-19.3-3.54-34.89-3.54-34.89,0,0-15.88,8.2-33.69,20.49,3.41,7.38,6.65,15.56,8.96,23.84,9.21-3.67,18.94-6.82,28.27-9.44Z"/>
      <path class="cls-24" d="m700.14,214.23c-23.36-3.57-47.16,3.77-60.84,18.41-7.11,7.6-15.11,14.61-23.85,19.85-35.68,21.4-70.08,5.22-70.08,5.22l-.18.08c66.13,47.43,140.86-33.66,155.13-43.53,0,0-.06,0-.17-.03Z"/>
    </g>
  </g>
</svg>